<?xml version="1.0" encoding="utf-8"?>
<!-- Generator: Adobe Illustrator 25.4.1, SVG Export Plug-In . SVG Version: 6.00 Build 0)  -->
<svg version="1.1" id="Logo_x5F_En" xmlns="http://www.w3.org/2000/svg" xmlns:xlink="http://www.w3.org/1999/xlink" x="0px"
	 y="0px" viewBox="0 0 471.8 335.2" style="enable-background:new 0 0 471.8 335.2;" xml:space="preserve">
<style type="text/css">
	.st0{fill:#D4AF37;}
	.st1{fill:#BE6779;}
</style>
<g id="Logo_00000137121719552920730780000010668015361088938395_">
	<path id="Logo_x5F_1" class="st0" d="M208.1,0l-0.2,82.7c0,0,49.2,29.4,61.6,87.9c0,0,20.2-43.4,70.2-43.4c0,0,29-1.5,50.3,18.6
		c0,0,25.6,20,24.9,56.9c-0.6,33.9-20.8,51.9-20.8,51.9s-23.9,23.2-49,23.2v57.4c0,0,62.4-1.7,100.4-54.9c0,0,26.3-33.4,26.3-76.4
		c0-45.9-23.7-84.7-46.1-101.7c0,0-34.1-32-85.9-32s-75.2,24.6-75.2,24.6V48C264.6,48,268.5,10.7,208.1,0z"/>
	<path id="Logo_x5F_2" class="st1" d="M202.1,231.7c0,0,7.1,36.7,28.6,60.1c0,0-32.4,43.3-97.9,43.3S0.1,284.4,0.1,201.1
		c0,0-5-60.1,53.7-105.4c0,0,29.5-25.5,78.5-25.5s84.3,21.4,110.8,58s22.4,78.9,22.4,78.9s-3.5,33.2,31.5,57.4
		c0,0,21.7,13.5,42.7,13.5v57.1c0,0-43.7,3-82-27.8c0,0-25.2-19.1-40.3-51.2c0,0-10.8-27.2-10.8-48.8c0,0,5.9-32.4-21.6-58.5
		c0,0-19.1-21.8-53.9-21.8s-56.9,28-56.9,28s-17,18.6-17,47.7s16.2,50.5,30.2,60.2c0,0,15.6,14.8,46.1,14.8s46.4-17,46.4-17
		S195.6,248.3,202.1,231.7z"/>
</g>
</svg>
